#!OML:ASF F:\VICON\USERDATA\INSTALL\Justin_Nancy\Justin_Nancy.ASF
:FULLY-SPECIFIED
:DEGREES
227
root 9.98756 17.3942 9.32325 253.359 84.9402 252.256
lowerback 10.4292 -1.03509 2.38198
upperback 1.13091 -0.769215 4.21023
thorax -4.64816 -0.33652 3.16626
lowerneck -15.8161 -4.0989 -9.06134
upperneck 21.9383 -4.11422 4.10567
head 9.86863 -2.1171 2.41762
rclavicle -8.94531e-016 1.51076e-014
rhumerus -36.3018 -14.4145 -75.954
rradius 26.6118
rwrist 8.77421
rhand -20.2966 11.109
rfingers 7.12502
rthumb 6.05349 -18.7845
lclavicle -8.94531e-016 1.51076e-014
lhumerus -31.3549 1.87663 87.6657
lradius 35.3134
lwrist 0.213348
lhand -19.9229 25.3792
lfingers 7.12502
lthumb 6.41425 55.2621
rfemur -20.3838 2.00929 24.5586
rtibia 26.4262
rfoot -5.37678 -3.82904
rtoes 3.45415
lfemur -5.42319 -4.66479 -16.8113
ltibia 61.4146
lfoot 28.3253 -13.0388
ltoes 5.26956
228
root 10.2207 17.4218 9.33017 248.631 86.778 247.433
lowerback 10.057 -0.882647 1.08315
upperback 1.14705 -0.78963 3.59065
thorax -4.41126 -0.341904 3.24223
lowerneck -15.8651 -4.12495 -9.28547
upperneck 21.9748 -4.12831 4.27343
head 9.90134 -2.12328 2.51196
rclavicle 1.75924e-014 -4.92986e-014
rhumerus -35.715 -13.5086 -76.2048
rradius 26.7717
rwrist 8.26815
rhand -19.5279 11.1288
rfingers 7.12502
rthumb 6.79553 -18.7422
lclavicle 1.75924e-014 -4.92986e-014
lhumerus -31.622 2.48557 87.3672
lradius 35.1026
lwrist -0.489855
lhand -19.2985 24.6629
lfingers 7.12502
lthumb 7.01704 54.5266
rfemur -19.5798 1.62632 22.6386
rtibia 26.1947
rfoot -5.8764 -3.22324
rtoes 3.57319
lfemur -7.32155 -4.54707 -19.2876
ltibia 63.2054
lfoot 24.5524 -12.504
ltoes 3.42463
229
root 10.435 17.4574 9.35633 277.812 80.9366 276.285
lowerback 9.79148 -0.464598 7.29203
upperback 1.11269 0.583421 4.95303
thorax -4.33099 0.280732 0.998969
lowerneck -15.7559 -4.21106 -8.62656
upperneck 21.8963 -4.37086 4.01409
head 9.84645 -2.21038 2.27846
rclavicle -3.8763e-015 2.54444e-014
rhumerus -35.2957 -13.5784 -76.3308
rradius 26.8446
rwrist 8.2254
rhand -19.4777 11.6102
rfingers 7.12502
rthumb 6.844 -18.2592
lclavicle -3.8763e-015 2.54444e-014
lhumerus -31.8943 3.11096 86.7293
lradius 34.8099
lwrist -1.32297
lhand -18.2626 23.7501
lfingers 7.12502
lthumb 8.01687 53.578
rfemur -18.8973 3.83775 29.4453
rtibia 26.0327
rfoot -6.5082 -3.05883
rtoes 5.78786
lfemur -9.48166 -1.5971 -12.0517
ltibia 65.4825
lfoot 20.1438 -13.2008
ltoes 2.26197
230
root 10.637 17.4957 9.46713 255.007 86.5323 253.166
lowerback 9.61743 -1.07155 0.656358
upperback 0.968572 -1.08439 3.85984
thorax -4.32503 -0.478962 3.7989
lowerneck -16.3019 -3.76357 -8.64077
upperneck 21.9932 -3.63567 3.75731
head 9.92722 -1.89934 2.28558
rclavicle -5.06901e-015 0
rhumerus -34.0778 -11.5788 -77.1277
rradius 26.7136
rwrist 7.52639
rhand -20.9115 11.2036
rfingers 7.12502
rthumb 5.45982 -18.7061
lclavicle -5.06901e-015 0
lhumerus -32.1386 5.15989 86.023
lradius 34.5541
lwrist -2.05165
lhand -17.4217 23.038
lfingers 7.12502
lthumb 8.82843 52.8333
rfemur -18.689 2.09835 23.4993
rtibia 26.5052
rfoot -7.65567 -2.96115
rtoes 10.0787
lfemur -12.0022 -3.14932 -18.028
ltibia 66.5071
lfoot 17.3573 -12.5769
ltoes 2.08406
231
root 10.834 17.5162 9.44644 243.085 87.2109 240.788
lowerback 9.42159 -1.18555 0.861977
upperback 0.608797 -1.27455 3.03855
thorax -4.60224 -0.591861 2.84801
lowerneck -15.7465 -3.50826 -7.43506
upperneck 21.8051 -3.59823 3.56926
head 9.71939 -1.80418 2.0292
rclavicle 1.2921e-014 -1.43125e-014
rhumerus -33.9544 -10.3752 -78.578
rradius 26.9964
rwrist 5.76628
rhand -22.3581 10.1999
rfingers 7.12502
rthumb 4.06299 -19.7411
lclavicle 1.2921e-014 -1.43125e-014
lhumerus -32.7912 4.62936 85.1865
lradius 34.5338
lwrist -2.10273
lhand -17.3834 23.6448
lfingers 7.12502
lthumb 8.86537 53.4386
rfemur -18.4713 0.904501 22.4809
rtibia 26.4343
rfoot -8.17959 -2.04676
rtoes 11.6566
lfemur -14.736 -3.16096 -19.314
ltibia 67.8436
lfoot 14.3357 -11.9117
ltoes 0.245486
232
root 11.0594 17.5351 9.50667 247.276 87.5748 244.964
lowerback 9.31617 -1.0924 0.38045
upperback 0.36591 -1.23481 2.6196
thorax -4.79691 -0.570743 2.67874
lowerneck -14.7873 -3.23476 -6.26642
upperneck 21.5597 -3.56393 3.53508
head 9.42238 -1.699 1.83633
rclavicle 3.08116e-015 -7.95139e-016
rhumerus -34.0478 -9.9018 -79.5354
rradius 27.2719
rwrist 5.79835
rhand -22.1188 10.0795
rfingers 7.12502
rthumb 4.29405 -19.8569
lclavicle 3.08116e-015 -7.95139e-016
lhumerus -33.7906 4.35233 84.1432
lradius 34.5627
lwrist -2.10672
lhand -17.5024 24.0471
lfingers 7.12502
lthumb 8.75055 53.8457
rfemur -18.1808 0.413416 22.8083
rtibia 27.3672
rfoot -8.99337 -2.31935
rtoes 2.74807
lfemur -16.4628 -2.22707 -19.4337
ltibia 68.5691
lfoot 11.5924 -11.5068
ltoes -1.26646
233
root 11.2829 17.5772 9.55769 252.945 87.553 250.687
lowerback 9.33924 -1.11278 0.356347
upperback 0.337015 -1.26451 2.61303
thorax -4.83842 -0.584834 2.69069
lowerneck -14.8088 -3.13471 -6.17775
upperneck 21.6503 -3.46046 3.59858
head 9.45125 -1.63589 1.85747
rclavicle 1.51573e-014 2.06736e-014
rhumerus -33.4689 -10.0546 -79.33
rradius 27.3772
rwrist 7.43106
rhand -20.7724 10.8428
rfingers 7.12502
rthumb 5.59406 -19.0634
lclavicle 1.51573e-014 2.06736e-014
lhumerus -34.3413 4.86074 83.6288
lradius 34.5178
lwrist -1.95947
lhand -18.1602 24.1573
lfingers 7.12502
lthumb 8.11576 53.9815
rfemur -17.0424 1.36958 22.8715
rtibia 27.2329
rfoot -9.96722 -2.07652
rtoes 12.7495
lfemur -18.0167 -1.92265 -19.3354
ltibia 69.1609
lfoot 9.14037 -10.4683
ltoes -1.74779
234
root 11.5072 17.5862 9.62561 262.563 87.5314 260.474
lowerback 9.283 0.116364 0.791101
upperback 0.840008 0.456721 3.25214
thorax -4.35681 0.269536 2.88015
lowerneck -16.1733 -4.70431 -9.94619
upperneck 21.9752 -4.8853 4.87918
head 10.0534 -2.457 2.72615
rclavicle -1.49089e-015 -2.38542e-015
rhumerus -32.5842 -11.3995 -76.7261
rradius 28.0263
rwrist 6.3389
rhand -20.396 11.413
rfingers 7.12502
rthumb 5.95747 -18.4832
lclavicle -1.49089e-015 -2.38542e-015
lhumerus -32.8814 2.90298 86.3094
lradius 33.536
lwrist -2.07824
lhand -18.2737 23.7851
lfingers 7.12502
lthumb 8.00614 53.6134
rfemur -15.832 1.85309 23.4366
rtibia 26.8647
rfoot -10.2666 -2.75686
rtoes 9.4543
lfemur -19.351 -1.53956 -19.2357
ltibia 69.5653
lfoot 6.71026 -9.02096
ltoes -3.43621
235
root 11.7152 17.5804 9.66225 264.031 87.3888 261.855
lowerback 9.17743 0.187872 1.19648
upperback 0.85593 0.586843 3.18552
thorax -4.28238 0.325838 2.56405
lowerneck -16.1931 -4.72474 -9.92883
upperneck 21.8268 -4.91858 4.88315
head 10.0063 -2.47035 2.71788
rclavicle -6.95746e-016 -1.59028e-015
rhumerus -32.0149 -10.7752 -76.9979
rradius 28.575
rwrist 5.51023
rhand -20.6025 11.5418
rfingers 7.12502
rthumb 5.75809 -18.36
lclavicle -6.95746e-016 -1.59028e-015
lhumerus -32.8714 1.80445 86.3388
lradius 32.9267
lwrist -1.75671
lhand -18.1065 23.7751
lfingers 7.12502
lthumb 8.16751 53.5972
rfemur -15.0826 1.36801 23.9609
rtibia 26.5916
rfoot -10.4862 -3.03777
rtoes 4.91046
lfemur -21.2191 -1.4035 -19.2332
ltibia 69.8841
lfoot 4.77865 -7.50706
ltoes -4.53391
236
root 11.929 17.5835 9.71823 270.598 87.2152 268.404
lowerback 9.15494 0.378452 1.39586
upperback 0.858582 0.858636 3.15997
thorax -4.2737 0.456642 2.39006
lowerneck -16.2661 -4.70192 -9.95222
upperneck 21.8071 -4.89391 4.96455
head 10.0133 -2.45099 2.75308
rclavicle -3.8763e-015 -2.54444e-014
rhumerus -31.5907 -10.0067 -77.2609
rradius 29.3285
rwrist 5.30399
rhand -19.9021 10.812
rfingers 7.12502
rthumb 6.43433 -19.0703
lclavicle -3.8763e-015 -2.54444e-014
lhumerus -32.9333 1.56717 86.1543
lradius 32.3711
lwrist -1.59929
lhand -17.8305 23.6924
lfingers 7.12502
lthumb 8.43396 53.504
rfemur -14.145 1.50823 24.5229
rtibia 26.3141
rfoot -10.9899 -3.25353
rtoes 4.41989
lfemur -22.8463 -0.61557 -18.9697
ltibia 69.9534
lfoot 3.08345 -6.54688
ltoes -3.71829
237
root 12.1513 17.5871 9.78818 281.356 86.924 279.177
lowerback 9.09898 0.638722 1.29186
upperback 0.864247 1.19983 3.28462
thorax -4.25245 0.629437 2.53583
lowerneck -16.1515 -4.66228 -9.87419
upperneck 21.6644 -4.8269 4.79304
head 9.92893 -2.43367 2.68854
rclavicle -1.19271e-015 6.36111e-015
rhumerus -31.1869 -8.70987 -77.6209
rradius 30.0693
rwrist 4.17735
rhand -20.0747 10.6026
rfingers 7.12502
rthumb 6.26769 -19.2847
lclavicle -1.19271e-015 6.36111e-015
lhumerus -33.2029 2.35892 85.8734
lradius 32.1498
lwrist -1.78294
lhand -17.6997 23.7428
lfingers 7.12502
lthumb 8.56012 53.5493
rfemur -13.1946 2.14003 25.1854
rtibia 26.2033
rfoot -11.5324 -3.71195
rtoes 3.62411
lfemur -24.212 0.486367 -18.5955
ltibia 69.7769
lfoot 1.29779 -5.61516
ltoes -2.10078
238
root 12.3708 17.5804 9.84556 290.946 86.7149 288.912
lowerback 9.17144 0.731653 0.983367
upperback 0.863035 1.29142 3.26485
thorax -4.30364 0.679297 2.67715
lowerneck -15.86 -4.45123 -9.49599
upperneck 21.3915 -4.62962 4.66708
head 9.74612 -2.32763 2.6103
rclavicle 3.77691e-015 4.05521e-014
rhumerus -30.7768 -7.84265 -78.1923
rradius 30.6936
rwrist 3.63786
rhand -20.4167 10.9723
rfingers 7.12502
rthumb 5.93747 -18.9245
lclavicle 3.77691e-015 4.05521e-014
lhumerus -33.8408 2.48032 85.4685
lradius 32.2757
lwrist -1.27312
lhand -17.7083 24.4465
lfingers 7.12502
lthumb 8.55182 54.2533
rfemur -12.233 2.7577 25.5966
rtibia 26.27
rfoot -11.991 -4.19815
rtoes 2.03548
lfemur -25.3862 1.46556 -18.5639
ltibia 69.3285
lfoot -0.362117 -4.06808
ltoes -4.52159
239
root 12.5853 17.5657 9.89101 296.123 86.258 294.241
lowerback 9.37267 0.639788 1.1923
upperback 0.702 1.16086 2.69601
thorax -4.56196 0.599682 1.98032
lowerneck -15.2548 -3.81867 -7.06795
upperneck 21.1568 -4.28947 4.10754
head 9.44242 -2.03878 2.0653
rclavicle -5.96354e-015 1.19271e-015
rhumerus -30.7023 -7.76811 -79.6902
rradius 31.3032
rwrist 4.05837
rhand -19.4832 11.5225
rfingers 7.12502
rthumb 6.83873 -18.3471
lclavicle -5.96354e-015 1.19271e-015
lhumerus -34.8968 1.75634 83.9372
lradius 32.5854
lwrist -0.235525
lhand -18.0445 25.6433
lfingers 7.12502
lthumb 8.22735 55.4631
rfemur -11.3115 3.40926 26.149
rtibia 26.4021
rfoot -12.5953 -4.41192
rtoes 3.3525
lfemur -26.613 2.39041 -18.3863
ltibia 68.6962
lfoot -1.9546 -2.5512
ltoes -9.53203
240
root 12.8129 17.5587 9.98908 299.559 85.7912 297.838
lowerback 9.4423 2.00687 1.48341
upperback 0.896111 3.02129 2.86583
thorax -4.44103 1.51939 1.74777
lowerneck -15.5389 -5.1038 -8.75757
upperneck 21.1749 -5.82488 4.9373
head 9.68492 -2.79292 2.42179
rclavicle -2.51463e-014 -3.57812e-015
rhumerus -30.9147 -9.65009 -78.0351
rradius 32.5786
rwrist 3.03201
rhand -19.2168 11.4961
rfingers 7.12502
rthumb 7.09588 -18.3649
lclavicle -2.51463e-014 -3.57812e-015
lhumerus -34.1835 -0.686885 85.4409
lradius 31.9305
lwrist -0.411813
lhand -18.3031 25.5967
lfingers 7.12502
lthumb 7.97782 55.4262
rfemur -10.2759 5.16905 26.782
rtibia 26.543
rfoot -13.4633 -5.0318
rtoes 9.90239
lfemur -27.7184 3.32399 -18.0144
ltibia 67.8684
lfoot -3.60123 -1.88407
ltoes -7.99988
